<svg xmlns="http://www.w3.org/2000/svg" viewBox="0 0 59.48 59.48"><defs><style>.cls-1{fill:#ccc;}.cls-2,.cls-3{fill:none;stroke:#555;stroke-width:3px;}.cls-2{stroke-linecap:round;stroke-linejoin:round;}.cls-3{stroke-miterlimit:10;}</style></defs><title>资源 1</title><g id="图层_2" data-name="图层 2"><g id="Layer_1" data-name="Layer 1"><path class="cls-1" d="M48.33,50.45l.25.3a28.19,28.19,0,0,1-37.67,0l.28-.33a21.57,21.57,0,0,1,7.17-3.59A9.76,9.76,0,0,0,24,43.18V38.42S21.17,34.65,21.56,32c0,0-3.49-2.33-1.07-5.72,0,0-5.61-16.14,8.64-16.3a6.61,6.61,0,0,1,5.4,2.7c9.65-1,4.49,13.6,4.49,13.6C41.45,29.7,38,32,38,32c.4,2.62-2.43,6.39-2.43,6.39v4.76a9.81,9.81,0,0,0,5.64,3.68A21.69,21.69,0,0,1,48.33,50.45Z"/><path class="cls-2" d="M48.33,50.45a21.69,21.69,0,0,0-7.17-3.59,9.81,9.81,0,0,1-5.64-3.68V38.42S38.35,34.65,38,32c0,0,3.5-2.33,1.07-5.72,0,0,5.16-14.56-4.49-13.6a6.61,6.61,0,0,0-5.4-2.7c-14.25.16-8.64,16.3-8.64,16.3C18.07,29.7,21.56,32,21.56,32,21.17,34.65,24,38.42,24,38.42v4.76a9.76,9.76,0,0,1-5.63,3.68,21.57,21.57,0,0,0-7.17,3.59"/><path class="cls-3" d="M10.91,50.78A28.19,28.19,0,1,1,29.74,58,28.19,28.19,0,0,1,10.91,50.78Z"/></g></g></svg>